HIERARCHY
ROOT hip
{
	OFFSET 0.000000 0.000000 0.000000 
	CHANNELS 6 Xposition Yposition Zposition Xrotation Zrotation Yrotation
	JOINT abdomen
	{
		OFFSET 0.000000 3.402643 0.000000 
		CHANNELS 3 Xrotation Zrotation Yrotation
		JOINT chest
		{
			OFFSET 0.000000 8.438565 -0.680529 
			CHANNELS 3 Xrotation Zrotation Yrotation
			JOINT neck
			{
				OFFSET 0.000000 10.207942 -0.272212 
				CHANNELS 3 Xrotation Zrotation Yrotation
				JOINT head
				{
					OFFSET 0.000000 3.130431 0.000000 
					CHANNELS 3 Xrotation Zrotation Yrotation
					End Site
					{
						OFFSET 0.000000 3.130435 0.000000 
					}
				}
			}
			JOINT lCollar
			{
				OFFSET 3.470700 6.669187 -0.816635 
				CHANNELS 3 Yrotation Zrotation Xrotation
				JOINT lShldr
				{
					OFFSET 3.198488 0.000000 0.000000 
					CHANNELS 3 Zrotation Yrotation Xrotation
					JOINT lForeArm
					{
						OFFSET 10.139888 0.000000 0.000000 
						CHANNELS 3 Yrotation Zrotation Xrotation
						JOINT lHand
						{
							OFFSET 8.370511 0.000000 0.000000 
							CHANNELS 3 Zrotation Yrotation Xrotation
							End Site
							{
								OFFSET 4.083176 0.000000 0.000000 
							}
						}
					}
				}
			}
			JOINT rCollar
			{
				OFFSET -3.470700 6.669187 -0.816635 
				CHANNELS 3 Yrotation Zrotation Xrotation
				JOINT rShldr
				{
					OFFSET -3.198488 0.000000 0.000000 
					CHANNELS 3 Zrotation Yrotation Xrotation
					JOINT rForeArm
					{
						OFFSET -10.139888 0.000000 0.000000 
						CHANNELS 3 Yrotation Zrotation Xrotation
						JOINT rHand
						{
							OFFSET -8.370511 0.000000 0.000000 
							CHANNELS 3 Zrotation Yrotation Xrotation
							End Site
							{
								OFFSET -4.083176 0.000000 0.000000 
							}
						}
					}
				}
			}
		}
	}
	JOINT lThigh
	{
		OFFSET 5.308129 -1.633274 1.361059 
		CHANNELS 3 Xrotation Zrotation Yrotation
		JOINT lShin
		{
			OFFSET -2.041588 -20.007561 0.000000 
			CHANNELS 3 Xrotation Zrotation Yrotation
			JOINT lFoot
			{
				OFFSET 0.000000 -19.190928 -1.224953 
				CHANNELS 3 Xrotation Yrotation Zrotation
				End Site
				{
					OFFSET 0.000000 -2.449906 4.627600 
				}
			}
		}
	}
	JOINT rThigh
	{
		OFFSET -5.308129 -1.633274 1.361059 
		CHANNELS 3 Xrotation Zrotation Yrotation
		JOINT rShin
		{
			OFFSET 2.041588 -20.007561 0.000000 
			CHANNELS 3 Xrotation Zrotation Yrotation
			JOINT rFoot
			{
				OFFSET 0.000000 -19.190928 -1.224953 
				CHANNELS 3 Xrotation Yrotation Zrotation
				End Site
				{
					OFFSET 0.000000 -2.449906 4.627600 
				}
			}
		}
	}
}
MOTION
Frames: 6
Frame Time: 0.016667
-6.228583 49.825905 -41.817310 -0.185547 1.748047 -5.810547 0.000000 0.000000 0.000000 29.013674 -12.207032 1.706919 19.208982 4.316407 1.503906 -32.636719 -7.861328 2.373047 -10.361328 20.859377 3.668398 3.466797 29.843746 6.748047 -82.617188 3.789063 -0.996094 2.294922 -3.535156 -3.555288 -9.423829 -13.974609 -2.285156 7.480468 -0.322266 -32.363281 33.525391 -3.857421 -13.720702 -3.447266 -0.771484 -3.613281 -27.449247 10.468303 0.267322 71.643188 3.041435 8.409419 -12.309061 0.406182 0.010259 23.235950 -15.219997 -1.432945 6.016811 9.840691 -13.234348 -3.160978 0.123382 0.071831 
-6.150589 50.238171 -37.616634 0.878906 1.572266 -5.781250 0.000000 0.000000 0.000000 26.875004 -14.033203 4.763258 21.982422 2.109375 0.859734 -32.421875 -8.964844 0.975042 -12.822266 21.035158 4.615636 10.957032 31.562502 1.880112 -75.810547 3.935547 -0.869811 2.314453 -3.886719 -3.555350 -11.386719 -8.710938 -1.746568 5.576172 0.644531 -23.124889 30.058594 -4.707031 -18.330078 -3.593750 -1.132813 -3.623047 -28.844301 10.711924 0.365378 54.693096 1.297041 9.739310 -11.599092 0.227681 0.102982 26.379045 -15.200152 -1.658353 6.534096 9.614163 -15.973396 4.559305 0.045386 0.190094 
-6.028021 49.970757 -33.326824 1.054688 0.166015 -4.746081 0.000000 0.000000 0.000000 25.039063 -13.916016 7.275390 24.970703 1.591797 0.742459 -32.441406 -9.101562 0.742188 -13.916016 20.605469 4.990234 16.562500 29.912109 -5.092786 -67.705078 3.837891 -0.791669 2.343750 -4.414062 -3.554688 -15.869142 -3.974609 -1.152344 3.593750 2.724609 -20.556639 28.759766 -3.720703 -18.203125 -3.583984 -1.308594 -3.447489 -27.281578 11.346429 0.287415 39.932468 -0.319586 9.328328 -10.897874 0.103566 0.050992 28.023125 -13.503518 -1.186116 14.569785 9.174232 -16.631920 8.095610 -0.039664 -0.001747 
-5.827459 49.012512 -28.992441 0.175781 -1.582031 -3.349610 0.000000 0.000000 0.000000 24.345701 -12.539061 8.603516 26.562500 2.353516 1.181632 -32.529297 -8.408203 1.601563 -10.839843 22.216797 4.097870 17.871094 23.525391 -15.367195 -59.570316 5.419922 -1.787109 2.197266 -4.775391 -3.545735 -22.353516 -2.685547 -1.142121 4.257813 6.767578 -18.973457 29.160154 -4.130859 -18.789063 -3.583984 -1.308594 -3.447489 -23.654343 12.066400 0.304734 31.557426 -2.393047 8.433042 -11.767523 0.037490 0.007944 28.202705 -11.220341 -1.164389 29.462307 7.024694 -11.995611 7.382764 -0.018062 0.177960 
-5.571184 47.641998 -24.736059 -1.416016 -2.285156 -2.412110 0.000000 0.000000 0.000000 25.009766 -11.992188 7.792970 26.787107 4.072266 2.060547 -32.724609 -7.050781 3.291016 -3.105469 24.833986 1.245898 15.566406 12.236328 -26.572266 -52.470703 10.341797 -6.202925 2.216797 -5.126954 -3.544922 -28.730471 -3.925782 -2.197266 7.519531 11.337891 -17.373047 30.546873 -5.498047 -20.224609 -3.593750 -1.132813 -3.623047 -19.415840 12.046001 0.250520 31.381805 -3.980109 7.713348 -15.446521 0.278067 0.128894 26.867126 -9.655173 -1.000607 48.893757 3.311216 -5.101967 4.214587 0.064043 0.382155 
-5.303768 46.405197 -20.702520 -2.998047 -1.582031 -2.207301 0.000000 0.000000 0.000000 26.396484 -13.125000 3.025126 25.976564 5.683594 2.764639 -32.968750 -5.957031 4.500939 8.652345 26.542969 -3.978973 12.255859 -1.181641 -36.826172 -49.990234 17.548828 -11.633804 2.207031 -4.951172 -3.545765 -31.757811 -7.255858 -4.510485 12.158203 14.355468 -15.820312 31.943357 -6.992188 -20.966795 -3.437500 -0.947266 -3.613441 -15.169896 10.786922 0.320720 36.836239 -4.605223 7.602468 -21.960627 0.309188 0.157489 22.570440 -9.977100 -1.036975 69.133644 -1.124204 -0.710861 0.684704 0.026768 0.385119 
